<mxfile host="app.diagrams.net" agent="Mozilla/5.0 (Windows NT 10.0; Win64; x64; rv:136.0) Gecko/20100101 Firefox/136.0" version="26.1.0">
  <diagram name="Page-1" id="cKiVssomuCug6B5XoP3y">
    <mxGraphModel dx="712" dy="773" grid="1" gridSize="10" guides="0" tooltips="1" connect="1" arrows="1" fold="1" page="1" pageScale="1" pageWidth="1600" pageHeight="900" math="0" shadow="0">
      <root>
        <mxCell id="0" />
        <mxCell id="1" parent="0" />
        <mxCell id="rXfnN_phQq9q4Ts1PVW_-15" value="PatientRecord" style="swimlane;fontStyle=1;align=center;verticalAlign=top;childLayout=stackLayout;horizontal=1;startSize=26;horizontalStack=0;resizeParent=1;resizeParentMax=0;resizeLast=0;collapsible=1;marginBottom=0;whiteSpace=wrap;html=1;" vertex="1" parent="1">
          <mxGeometry x="20" y="230" width="160" height="78" as="geometry" />
        </mxCell>
        <mxCell id="rXfnN_phQq9q4Ts1PVW_-16" value="&lt;div&gt;childREGNum&lt;/div&gt;&lt;div&gt;childName&lt;/div&gt;&lt;div&gt;ITN&lt;/div&gt;" style="text;strokeColor=none;fillColor=none;align=left;verticalAlign=top;spacingLeft=4;spacingRight=4;overflow=hidden;rotatable=0;points=[[0,0.5],[1,0.5]];portConstraint=eastwest;whiteSpace=wrap;html=1;" vertex="1" parent="rXfnN_phQq9q4Ts1PVW_-15">
          <mxGeometry y="26" width="160" height="44" as="geometry" />
        </mxCell>
        <mxCell id="rXfnN_phQq9q4Ts1PVW_-17" value="" style="line;strokeWidth=1;fillColor=none;align=left;verticalAlign=middle;spacingTop=-1;spacingLeft=3;spacingRight=3;rotatable=0;labelPosition=right;points=[];portConstraint=eastwest;strokeColor=inherit;" vertex="1" parent="rXfnN_phQq9q4Ts1PVW_-15">
          <mxGeometry y="70" width="160" height="8" as="geometry" />
        </mxCell>
        <mxCell id="rXfnN_phQq9q4Ts1PVW_-20" value="Location" style="swimlane;fontStyle=1;align=center;verticalAlign=top;childLayout=stackLayout;horizontal=1;startSize=26;horizontalStack=0;resizeParent=1;resizeParentMax=0;resizeLast=0;collapsible=1;marginBottom=0;whiteSpace=wrap;html=1;" vertex="1" parent="1">
          <mxGeometry x="400" y="560" width="160" height="34" as="geometry" />
        </mxCell>
        <mxCell id="rXfnN_phQq9q4Ts1PVW_-22" value="" style="line;strokeWidth=1;fillColor=none;align=left;verticalAlign=middle;spacingTop=-1;spacingLeft=3;spacingRight=3;rotatable=0;labelPosition=right;points=[];portConstraint=eastwest;strokeColor=inherit;" vertex="1" parent="rXfnN_phQq9q4Ts1PVW_-20">
          <mxGeometry y="26" width="160" height="8" as="geometry" />
        </mxCell>
        <mxCell id="rXfnN_phQq9q4Ts1PVW_-48" value="Format very broad" style="rounded=1;whiteSpace=wrap;html=1;" vertex="1" parent="1">
          <mxGeometry x="440" y="520" width="80" height="30" as="geometry" />
        </mxCell>
        <mxCell id="rXfnN_phQq9q4Ts1PVW_-52" value="Date" style="swimlane;fontStyle=1;align=center;verticalAlign=top;childLayout=stackLayout;horizontal=1;startSize=26;horizontalStack=0;resizeParent=1;resizeParentMax=0;resizeLast=0;collapsible=1;marginBottom=0;whiteSpace=wrap;html=1;" vertex="1" parent="1">
          <mxGeometry x="720" y="150" width="160" height="86" as="geometry" />
        </mxCell>
        <mxCell id="rXfnN_phQq9q4Ts1PVW_-53" value="time?" style="text;strokeColor=none;fillColor=none;align=left;verticalAlign=top;spacingLeft=4;spacingRight=4;overflow=hidden;rotatable=0;points=[[0,0.5],[1,0.5]];portConstraint=eastwest;whiteSpace=wrap;html=1;" vertex="1" parent="rXfnN_phQq9q4Ts1PVW_-52">
          <mxGeometry y="26" width="160" height="26" as="geometry" />
        </mxCell>
        <mxCell id="rXfnN_phQq9q4Ts1PVW_-54" value="" style="line;strokeWidth=1;fillColor=none;align=left;verticalAlign=middle;spacingTop=-1;spacingLeft=3;spacingRight=3;rotatable=0;labelPosition=right;points=[];portConstraint=eastwest;strokeColor=inherit;" vertex="1" parent="rXfnN_phQq9q4Ts1PVW_-52">
          <mxGeometry y="52" width="160" height="8" as="geometry" />
        </mxCell>
        <mxCell id="rXfnN_phQq9q4Ts1PVW_-55" value="+ method(type): type" style="text;strokeColor=none;fillColor=none;align=left;verticalAlign=top;spacingLeft=4;spacingRight=4;overflow=hidden;rotatable=0;points=[[0,0.5],[1,0.5]];portConstraint=eastwest;whiteSpace=wrap;html=1;" vertex="1" parent="rXfnN_phQq9q4Ts1PVW_-52">
          <mxGeometry y="60" width="160" height="26" as="geometry" />
        </mxCell>
        <mxCell id="rXfnN_phQq9q4Ts1PVW_-56" value="DateOfBirth(DOB)" style="swimlane;fontStyle=1;align=center;verticalAlign=top;childLayout=stackLayout;horizontal=1;startSize=26;horizontalStack=0;resizeParent=1;resizeParentMax=0;resizeLast=0;collapsible=1;marginBottom=0;whiteSpace=wrap;html=1;" vertex="1" parent="1">
          <mxGeometry x="400" width="160" height="86" as="geometry" />
        </mxCell>
        <mxCell id="rXfnN_phQq9q4Ts1PVW_-57" value="time?" style="text;strokeColor=none;fillColor=none;align=left;verticalAlign=top;spacingLeft=4;spacingRight=4;overflow=hidden;rotatable=0;points=[[0,0.5],[1,0.5]];portConstraint=eastwest;whiteSpace=wrap;html=1;" vertex="1" parent="rXfnN_phQq9q4Ts1PVW_-56">
          <mxGeometry y="26" width="160" height="26" as="geometry" />
        </mxCell>
        <mxCell id="rXfnN_phQq9q4Ts1PVW_-58" value="" style="line;strokeWidth=1;fillColor=none;align=left;verticalAlign=middle;spacingTop=-1;spacingLeft=3;spacingRight=3;rotatable=0;labelPosition=right;points=[];portConstraint=eastwest;strokeColor=inherit;" vertex="1" parent="rXfnN_phQq9q4Ts1PVW_-56">
          <mxGeometry y="52" width="160" height="8" as="geometry" />
        </mxCell>
        <mxCell id="rXfnN_phQq9q4Ts1PVW_-59" value="+ method(type): type" style="text;strokeColor=none;fillColor=none;align=left;verticalAlign=top;spacingLeft=4;spacingRight=4;overflow=hidden;rotatable=0;points=[[0,0.5],[1,0.5]];portConstraint=eastwest;whiteSpace=wrap;html=1;" vertex="1" parent="rXfnN_phQq9q4Ts1PVW_-56">
          <mxGeometry y="60" width="160" height="26" as="geometry" />
        </mxCell>
        <mxCell id="rXfnN_phQq9q4Ts1PVW_-60" value="Firstregistered" style="swimlane;fontStyle=1;align=center;verticalAlign=top;childLayout=stackLayout;horizontal=1;startSize=26;horizontalStack=0;resizeParent=1;resizeParentMax=0;resizeLast=0;collapsible=1;marginBottom=0;whiteSpace=wrap;html=1;" vertex="1" parent="1">
          <mxGeometry x="400" y="100" width="160" height="86" as="geometry" />
        </mxCell>
        <mxCell id="rXfnN_phQq9q4Ts1PVW_-61" value="time?" style="text;strokeColor=none;fillColor=none;align=left;verticalAlign=top;spacingLeft=4;spacingRight=4;overflow=hidden;rotatable=0;points=[[0,0.5],[1,0.5]];portConstraint=eastwest;whiteSpace=wrap;html=1;" vertex="1" parent="rXfnN_phQq9q4Ts1PVW_-60">
          <mxGeometry y="26" width="160" height="26" as="geometry" />
        </mxCell>
        <mxCell id="rXfnN_phQq9q4Ts1PVW_-62" value="" style="line;strokeWidth=1;fillColor=none;align=left;verticalAlign=middle;spacingTop=-1;spacingLeft=3;spacingRight=3;rotatable=0;labelPosition=right;points=[];portConstraint=eastwest;strokeColor=inherit;" vertex="1" parent="rXfnN_phQq9q4Ts1PVW_-60">
          <mxGeometry y="52" width="160" height="8" as="geometry" />
        </mxCell>
        <mxCell id="rXfnN_phQq9q4Ts1PVW_-63" value="+ method(type): type" style="text;strokeColor=none;fillColor=none;align=left;verticalAlign=top;spacingLeft=4;spacingRight=4;overflow=hidden;rotatable=0;points=[[0,0.5],[1,0.5]];portConstraint=eastwest;whiteSpace=wrap;html=1;" vertex="1" parent="rXfnN_phQq9q4Ts1PVW_-60">
          <mxGeometry y="60" width="160" height="26" as="geometry" />
        </mxCell>
        <mxCell id="rXfnN_phQq9q4Ts1PVW_-64" value="&lt;p style=&quot;margin:0px;margin-top:4px;text-align:center;&quot;&gt;Mother&lt;/p&gt;&lt;hr size=&quot;1&quot; style=&quot;border-style:solid;&quot;&gt;&lt;div&gt;Name&lt;/div&gt;&lt;div&gt;Parity&lt;/div&gt;&lt;hr size=&quot;1&quot; style=&quot;border-style:solid;&quot;&gt;&lt;p style=&quot;margin:0px;margin-left:4px;&quot;&gt;+ method(): Type&lt;/p&gt;" style="verticalAlign=top;align=left;overflow=fill;html=1;whiteSpace=wrap;" vertex="1" parent="1">
          <mxGeometry x="400" y="410" width="160" height="90" as="geometry" />
        </mxCell>
        <mxCell id="rXfnN_phQq9q4Ts1PVW_-65" value="Remarks" style="swimlane;fontStyle=1;align=center;verticalAlign=top;childLayout=stackLayout;horizontal=1;startSize=26;horizontalStack=0;resizeParent=1;resizeParentMax=0;resizeLast=0;collapsible=1;marginBottom=0;whiteSpace=wrap;html=1;" vertex="1" parent="1">
          <mxGeometry x="400" y="610" width="160" height="60" as="geometry" />
        </mxCell>
        <mxCell id="rXfnN_phQq9q4Ts1PVW_-67" value="String" style="text;strokeColor=none;fillColor=none;align=left;verticalAlign=top;spacingLeft=4;spacingRight=4;overflow=hidden;rotatable=0;points=[[0,0.5],[1,0.5]];portConstraint=eastwest;whiteSpace=wrap;html=1;" vertex="1" parent="rXfnN_phQq9q4Ts1PVW_-65">
          <mxGeometry y="26" width="160" height="26" as="geometry" />
        </mxCell>
        <mxCell id="rXfnN_phQq9q4Ts1PVW_-66" value="" style="line;strokeWidth=1;fillColor=none;align=left;verticalAlign=middle;spacingTop=-1;spacingLeft=3;spacingRight=3;rotatable=0;labelPosition=right;points=[];portConstraint=eastwest;strokeColor=inherit;" vertex="1" parent="rXfnN_phQq9q4Ts1PVW_-65">
          <mxGeometry y="52" width="160" height="8" as="geometry" />
        </mxCell>
        <mxCell id="rXfnN_phQq9q4Ts1PVW_-69" value="&lt;p style=&quot;margin:0px;margin-top:4px;text-align:center;&quot;&gt;Vaccine&lt;/p&gt;&lt;hr size=&quot;1&quot; style=&quot;border-style:solid;&quot;&gt;&lt;div&gt;BatchNum&lt;/div&gt;&lt;hr size=&quot;1&quot; style=&quot;border-style:solid;&quot;&gt;&lt;p style=&quot;margin:0px;margin-left:4px;&quot;&gt;+ method(): Type&lt;/p&gt;" style="verticalAlign=top;align=left;overflow=fill;html=1;whiteSpace=wrap;" vertex="1" parent="1">
          <mxGeometry x="400" y="200" width="160" height="90" as="geometry" />
        </mxCell>
        <mxCell id="rXfnN_phQq9q4Ts1PVW_-70" value="&lt;p style=&quot;margin:0px;margin-top:4px;text-align:center;&quot;&gt;VitA&lt;/p&gt;&lt;hr size=&quot;1&quot; style=&quot;border-style:solid;&quot;&gt;DidUse&lt;hr size=&quot;1&quot; style=&quot;border-style:solid;&quot;&gt;&lt;p style=&quot;margin:0px;margin-left:4px;&quot;&gt;+ method(): Type&lt;/p&gt;" style="verticalAlign=top;align=left;overflow=fill;html=1;whiteSpace=wrap;" vertex="1" parent="1">
          <mxGeometry x="400" y="300" width="160" height="90" as="geometry" />
        </mxCell>
        <mxCell id="rXfnN_phQq9q4Ts1PVW_-85" value="" style="endArrow=classic;html=1;rounded=0;shape=link;width=-1.0344827586206886;" edge="1" parent="1" source="rXfnN_phQq9q4Ts1PVW_-56" target="rXfnN_phQq9q4Ts1PVW_-52">
          <mxGeometry relative="1" as="geometry">
            <mxPoint x="600" y="160" as="sourcePoint" />
            <mxPoint x="700" y="160" as="targetPoint" />
          </mxGeometry>
        </mxCell>
        <mxCell id="rXfnN_phQq9q4Ts1PVW_-86" value="&lt;div&gt;has&lt;/div&gt;" style="edgeLabel;resizable=0;html=1;;align=center;verticalAlign=middle;" connectable="0" vertex="1" parent="rXfnN_phQq9q4Ts1PVW_-85">
          <mxGeometry relative="1" as="geometry" />
        </mxCell>
        <mxCell id="rXfnN_phQq9q4Ts1PVW_-90" value="" style="endArrow=classic;html=1;rounded=0;shape=link;width=0.3448275862068968;" edge="1" parent="1" source="rXfnN_phQq9q4Ts1PVW_-60" target="rXfnN_phQq9q4Ts1PVW_-52">
          <mxGeometry relative="1" as="geometry">
            <mxPoint x="560" y="140" as="sourcePoint" />
            <mxPoint x="720" y="215" as="targetPoint" />
          </mxGeometry>
        </mxCell>
        <mxCell id="rXfnN_phQq9q4Ts1PVW_-91" value="&lt;div&gt;has&lt;/div&gt;" style="edgeLabel;resizable=0;html=1;;align=center;verticalAlign=middle;" connectable="0" vertex="1" parent="rXfnN_phQq9q4Ts1PVW_-90">
          <mxGeometry relative="1" as="geometry" />
        </mxCell>
        <mxCell id="rXfnN_phQq9q4Ts1PVW_-92" value="" style="endArrow=classic;html=1;rounded=0;shape=link;width=0.3448275862068968;" edge="1" parent="1" source="rXfnN_phQq9q4Ts1PVW_-69" target="rXfnN_phQq9q4Ts1PVW_-52">
          <mxGeometry relative="1" as="geometry">
            <mxPoint x="580" y="101" as="sourcePoint" />
            <mxPoint x="740" y="176" as="targetPoint" />
          </mxGeometry>
        </mxCell>
        <mxCell id="rXfnN_phQq9q4Ts1PVW_-93" value="&lt;div&gt;has&lt;/div&gt;" style="edgeLabel;resizable=0;html=1;;align=center;verticalAlign=middle;" connectable="0" vertex="1" parent="rXfnN_phQq9q4Ts1PVW_-92">
          <mxGeometry relative="1" as="geometry" />
        </mxCell>
        <mxCell id="rXfnN_phQq9q4Ts1PVW_-94" value="" style="endArrow=classic;html=1;rounded=0;shape=link;width=-1.0344827586206886;" edge="1" parent="1" source="rXfnN_phQq9q4Ts1PVW_-70" target="rXfnN_phQq9q4Ts1PVW_-52">
          <mxGeometry relative="1" as="geometry">
            <mxPoint x="570" y="242" as="sourcePoint" />
            <mxPoint x="730" y="216" as="targetPoint" />
          </mxGeometry>
        </mxCell>
        <mxCell id="rXfnN_phQq9q4Ts1PVW_-95" value="&lt;div&gt;has&lt;/div&gt;" style="edgeLabel;resizable=0;html=1;;align=center;verticalAlign=middle;" connectable="0" vertex="1" parent="rXfnN_phQq9q4Ts1PVW_-94">
          <mxGeometry relative="1" as="geometry" />
        </mxCell>
      </root>
    </mxGraphModel>
  </diagram>
</mxfile>
